<?xml version="1.0" standalone="no"?>
<!DOCTYPE svg PUBLIC "-//W3C//DTD SVG 1.1//EN" "http://www.w3.org/Graphics/SVG/1.1/DTD/svg11.dtd" >
<svg xmlns="http://www.w3.org/2000/svg" xmlns:xlink="http://www.w3.org/1999/xlink" version="1.1">
<metadata></metadata>
<defs>
<font id="noto_sans_thaiblack" horiz-adv-x="0" >
<font-face units-per-em="2048" ascent="1638" descent="-410" />
<missing-glyph horiz-adv-x="532" />
<glyph unicode="&#xe24;&#xe45;" horiz-adv-x="2007" d="M90 713v41q0 113 61.5 203t176 143t278.5 53q152 0 252 -46t154 -132h8q51 84 150.5 131t244.5 47q166 0 270.5 -56.5t153.5 -155.5t49 -228v-1164h-393v1108q0 88 -36 136.5t-118 48.5t-117.5 -48.5t-35.5 -136.5v-1108h-393v1123q0 78 -36 124t-124 46 q-76 0 -105.5 -32t-33.5 -71l143 -63l-25 -154q-74 -2 -103.5 -27.5t-29.5 -91.5v-88q0 -82 80 -82q37 0 68 13l30 -219q-39 -20 -97 -33.5t-128 -13.5q-164 0 -249 77.5t-85 216.5v76q0 113 52.5 178.5t152.5 98.5l2 8z" />
<glyph unicode="&#xe26;&#xe45;" horiz-adv-x="2045" d="M41 31l35 200q23 -8 45 -8q68 0 67 68v121q0 84 37 139t119 76l2 8l-217 78v41q0 113 60.5 203t179 143t297.5 53q137 0 239.5 -46t145.5 -132h8q51 84 151.5 131t243.5 47q164 0 269.5 -56.5t154.5 -155.5t49 -228v-1164h-393v1108q0 88 -36 136.5t-118 48.5 t-117.5 -48.5t-35.5 -136.5v-1108h-393v1123q0 78 -36 124t-124 46q-76 0 -105.5 -32t-33.5 -71l143 -61l-25 -156q-49 -2 -66.5 -32.5t-17.5 -96.5v-151q0 -139 -86 -200.5t-221 -61.5q-72 0 -128 14t-93 37z" />
<glyph />
<glyph />
<glyph unicode="&#xd;" horiz-adv-x="532" />
<glyph unicode=" "  horiz-adv-x="532" />
<glyph unicode="&#x09;" horiz-adv-x="532" />
<glyph unicode="&#xa0;" horiz-adv-x="532" />
<glyph unicode="-" horiz-adv-x="651" d="M43 393v312h565v-312h-565z" />
<glyph unicode="&#xad;" horiz-adv-x="651" d="M43 393v312h565v-312h-565z" />
<glyph unicode="&#x2bc;" horiz-adv-x="512" d="M41 877q18 94 36.5 197.5t33 203.5t22.5 182h352l15 -22q-16 -74 -44 -176.5t-59.5 -206t-62.5 -178.5h-293z" />
<glyph unicode="&#x2d7;" horiz-adv-x="446" d="M25 492v147h397v-147h-397z" />
<glyph unicode="&#x303;" d="M-1044 1237q12 188 65 265t160 77q47 0 105.5 -23.5t117.5 -48t109 -24.5q10 0 25.5 16.5t25.5 81.5h190q-12 -184 -69.5 -263t-147.5 -79q-61 0 -121.5 23.5t-117 48t-105.5 24.5q-10 0 -25.5 -16t-25.5 -82h-186z" />
<glyph unicode="&#x331;" d="M-954 -172h708v-236h-708v236z" />
<glyph unicode="&#xe01;" horiz-adv-x="1331" d="M115 713v41q0 113 62.5 203t186 143t308.5 53q266 0 403 -119t137 -344v-690h-393v672q0 78 -35.5 124t-124.5 46q-76 0 -105.5 -32t-33.5 -71l156 -67l-25 -158q-74 -8 -98.5 -55t-24.5 -113v-346h-393v309q0 129 47 207t148 111l2 8z" />
<glyph unicode="&#xe02;" horiz-adv-x="1269" d="M74 1081q70 35 146.5 48.5t133.5 13.5q150 0 212.5 -69.5t62.5 -192.5q0 -102 -49 -201q-25 -47 -45.5 -83t-20.5 -114v-55q0 -72 27.5 -114t93.5 -42q68 0 97.5 44t29.5 120v686h389v-692q0 -233 -132 -347t-386 -114q-256 0 -382 108.5t-126 311.5v53q0 70 19.5 121 t52.5 99q31 45 50 79.5t19 69.5q0 57 -57 57q-33 0 -80 -22z" />
<glyph unicode="&#xe03;" horiz-adv-x="1294" d="M66 1026v96h260q0 -53 13 -76.5t42 -23.5q14 0 30.5 5t32.5 22l33 73h205v-168q0 -70 -10 -110.5t-28.5 -71.5t-41.5 -67q-25 -37 -43 -66t-29.5 -65.5t-11.5 -94.5v-47q0 -72 30 -116t105 -44q76 0 104.5 45t28.5 119v686h390v-692q0 -233 -133.5 -347t-389.5 -114 q-272 0 -400 115t-128 317v25q0 78 29.5 147.5t99.5 147.5q14 16 37.5 43t27.5 49l-6 2q-37 -12 -71 -12q-78 0 -127 57.5t-49 165.5z" />
<glyph unicode="&#xe04;" horiz-adv-x="1359" d="M119 0v631q0 254 136 388t429 134t425 -134t132 -388v-631h-389v637q0 88 -39 146.5t-135 58.5t-135 -58.5t-39 -146.5v-143l8 -2q35 80 82 105.5t125 25.5h37v-285h-37q-88 0 -134 -35t-63.5 -91t-17.5 -126v-86h-385z" />
<glyph unicode="&#xe05;" horiz-adv-x="1390" d="M119 0v868q0 143 86 214t223 71q100 0 170 -37t92 -108h10q23 72 92.5 108.5t170.5 36.5q139 0 224 -70.5t85 -214.5v-868h-389v739q0 55 -15.5 77t-44.5 22t-47 -21.5t-20 -66.5h-121q-8 88 -68 88q-27 0 -45 -21.5t-18 -77.5v-245l8 -2q35 80 85 105.5t146 25.5h37 v-285h-37q-100 0 -151 -35t-69.5 -91t-18.5 -126v-86h-385z" />
<glyph unicode="&#xe06;" horiz-adv-x="1359" d="M78 1026v96h262q0 -53 13.5 -76.5t41.5 -23.5q14 0 30.5 5t33.5 22l33 73h219v-168q0 -84 -19.5 -135t-60.5 -114t-67.5 -101.5t-26.5 -101.5v-13q0 -76 46 -121.5t126 -45.5q66 0 102.5 39.5t36.5 152.5v608h393v-712q0 -201 -92.5 -315.5t-280.5 -114.5q-147 0 -240 57 t-130 139h-23l-49 -176h-283v406q0 90 26 163.5t97 151.5q20 20 41 45t25 47l-6 2q-37 -12 -72 -12q-78 0 -127 57.5t-49 165.5z" />
<glyph unicode="&#xe07;" horiz-adv-x="1204" d="M0 1122h395l213 -811h6q20 0 37 14.5t33 39.5q29 47 42 111.5t13 127.5q0 113 -35.5 171.5t-101.5 58.5q-23 0 -41 -9l-65 297q49 14 94 17.5t72 3.5q115 0 193.5 -30t137.5 -85q147 -141 148 -412q0 -170 -54.5 -292.5t-130.5 -194.5q-63 -59 -162.5 -94t-281.5 -35 h-199z" />
<glyph unicode="&#xe08;" horiz-adv-x="1175" d="M74 748v317q72 33 177 60.5t251 27.5q311 0 460.5 -138t149.5 -442q0 -279 -138 -426t-466 -147h-322v451h-92v219h441v-377h6q78 0 126 72.5t48 197.5q0 109 -38 171.5t-104.5 87t-154.5 24.5q-115 0 -200 -32t-144 -66z" />
<glyph unicode="&#xe09;" horiz-adv-x="1298" d="M139 328v313h373v-172q0 -84 30.5 -117t84.5 -33q72 0 115.5 49.5t43.5 151.5v146q0 96 -64.5 138t-174.5 42q-121 0 -215 -35t-156 -63v317q72 33 198 60.5t271 27.5q285 0 410 -125t125 -358v-670h-291l-49 166h-23q-39 -72 -121 -129t-217 -57q-168 0 -254 80.5 t-86 267.5z" />
<glyph unicode="&#xe0a;" horiz-adv-x="1288" d="M74 1081q70 35 146.5 48.5t133.5 13.5q150 0 212.5 -69.5t62.5 -192.5q0 -102 -49 -201q-25 -47 -41.5 -83t-16.5 -114v-51q0 -72 30 -116t105 -44q78 0 108 46.5t30 117.5v137q0 53 -22.5 86t-80.5 33h-12v193h14q76 0 101.5 67.5t25.5 169.5h389q0 -139 -35.5 -223 t-113.5 -111v-8q66 -18 94.5 -69.5t28.5 -135.5v-145q0 -233 -133.5 -347t-391.5 -114q-262 0 -394 109.5t-132 312.5v49q0 70 15.5 122t48.5 100q31 45 50 79.5t19 69.5q0 57 -57 57q-33 0 -80 -22z" />
<glyph unicode="&#xe0b;" horiz-adv-x="1294" d="M66 1026v96h262q0 -53 13 -76.5t42 -23.5q14 0 30.5 5t32.5 22l33 73h185v-168q0 -70 -5.5 -110.5t-18.5 -71.5t-36 -67q-23 -37 -42 -66t-30.5 -65.5t-11.5 -94.5v-47q0 -72 31 -116t108 -44q82 0 112 46.5t30 117.5v137q0 53 -20.5 86t-67.5 33h-6v193h8q70 0 91 67.5 t21 169.5h390q0 -276 -150 -334v-8q63 -18 93 -69.5t30 -135.5v-145q-1 -461 -531 -461q-270 0 -401 115t-131 317v25q0 78 28.5 147.5t98.5 147.5q14 16 37.5 43t27.5 49l-6 2q-37 -12 -71 -12q-78 0 -127 57.5t-49 165.5z" />
<glyph unicode="&#xe0c;" horiz-adv-x="1931" d="M90 713v41q0 113 62.5 203t185.5 143t305 53q266 0 396 -114.5t130 -315.5v-174q0 -102 40 -164.5t102 -62.5q43 0 75.5 34.5t32.5 116.5v649h393v-753q0 -184 -73.5 -286.5t-253.5 -102.5q-139 0 -219 57t-117 139h-23l-49 -176h-293v686q0 84 -33.5 124t-111.5 40 q-131 0 -143 -102l143 -68l-25 -158q-74 -2 -103.5 -27.5t-29.5 -91.5v-88q0 -82 80 -82q37 0 68 13l30 -219q-39 -20 -97 -33.5t-128 -13.5q-164 0 -249 77.5t-85 216.5v88q0 113 52.5 172.5t152.5 92.5l2 8z" />
<glyph unicode="&#xe0d;" horiz-adv-x="1959" d="M90 713v41q0 113 62.5 203t185.5 143t305 53q266 0 396 -114.5t130 -315.5v-209q0 -82 34 -117t79 -35q66 0 105.5 62.5t39.5 165.5v532h394v-962q0 -303 -150.5 -447.5t-443.5 -144.5q-96 0 -193.5 16.5t-179.5 53.5v317q45 -29 124 -56.5t181 -27.5q139 0 210 59.5 t71 159.5v66h-19q-37 -53 -104.5 -92t-186.5 -39q-162 0 -254 84t-92 260v329q0 80 -38.5 116t-108.5 36q-59 0 -97 -25.5t-44 -76.5l143 -68l-25 -158q-74 -2 -103.5 -27.5t-29.5 -91.5v-88q0 -82 80 -82q37 0 68 13l30 -219q-39 -20 -97 -33.5t-128 -13.5 q-164 0 -249 77.5t-85 216.5v88q0 113 52.5 172.5t152.5 92.5l2 8z" />
<glyph unicode="&#xe0e;" horiz-adv-x="1345" d="M41 51l35 201q23 -8 45 -8q68 0 67 67v101q0 84 37 139t119 76l2 8l-217 78v41q0 113 60.5 203t183.5 143t309 53q270 0 407.5 -119t137.5 -344v-1141h-350q-41 59 -115 83t-127 24q-59 0 -85 -22.5t-26 -65.5v-19h-358v35q0 203 93 285t253 82q94 0 179 -23.5t143 -66.5 v811q0 78 -36 124t-124 46q-76 0 -105.5 -32t-33.5 -71l143 -61l-25 -156q-49 -2 -66.5 -32.5t-17.5 -96.5v-131q0 -139 -86 -200.5t-221 -61.5q-72 0 -128 14.5t-93 36.5z" />
<glyph unicode="&#xe0f;" horiz-adv-x="1345" d="M41 51l35 201q23 -8 45 -8q68 0 67 67v101q0 84 37 139t119 76l2 8l-217 78v41q0 113 60.5 203t183.5 143t309 53q270 0 407.5 -119t137.5 -344v-1141h-322l-137 101l-92 -101h-88q-16 35 -47 66t-76 31q-47 0 -58.5 -31t-11.5 -59v-7h-297v86q0 166 79 237t194 71 q80 0 143.5 -33t108.5 -107l108 105l103 -70v834q0 78 -36 124t-124 46q-76 0 -105.5 -32t-33.5 -71l143 -61l-25 -156q-49 -2 -66.5 -32.5t-17.5 -96.5v-131q0 -139 -86 -200.5t-221 -61.5q-72 0 -128 14.5t-93 36.5z" />
<glyph unicode="&#xe10;" horiz-adv-x="1200" d="M76 -377q0 166 70.5 236.5t183.5 70.5q84 0 139 -34.5t106 -104.5l99 111l125 -90v149h315v-412h-326l-110 99l-72 -99h-65q-18 35 -48 66t-75 31t-56.5 -31t-11.5 -59v-7h-274v74zM84 748v317q72 33 177.5 60.5t256.5 27.5q94 0 173 -15.5t132 -54.5q59 47 51 113h302 q0 -76 -35 -154.5t-131 -138.5q51 -47 82.5 -134t31.5 -220q0 -254 -142 -401.5t-464 -147.5h-321v451h-93v219h441v-377h6q78 0 126 72.5t48 197.5q0 162 -81 222.5t-212 60.5q-119 0 -204 -32t-144 -66z" />
<glyph unicode="&#xe11;" horiz-adv-x="1359" d="M66 1026v96h249q0 -53 13.5 -76.5t42.5 -23.5q14 0 30.5 5t32.5 22l33 73h184v-157h11q41 72 123.5 125t201.5 53q115 0 184.5 -66.5t69.5 -189.5v-887h-393v698q0 61 -16.5 92t-59.5 31q-39 0 -73.5 -29.5t-84.5 -103.5q-39 -57 -57 -110.5t-18 -139.5v-438h-394v426 q0 51 6.5 96t29 93.5t73.5 105.5q31 35 46 53.5t19 38.5l-6 2q-37 -12 -71 -12q-78 0 -127 57.5t-49 165.5z" />
<glyph unicode="&#xe12;" horiz-adv-x="1984" d="M84 575q0 293 91 430.5t269 137.5q74 0 131.5 -30t98.5 -116h8q35 88 109.5 117t148.5 29q143 0 213 -80t70 -225v-289q0 -102 40 -164.5t101 -62.5q43 0 76 34.5t33 116.5v649h393v-753q0 -184 -74 -286.5t-254 -102.5q-139 0 -219 57t-117 139h-22l-50 -176h-292v741 q0 55 -13.5 72.5t-33.5 17.5q-23 0 -38.5 -16t-21.5 -63h-125q-6 49 -22.5 64t-32.5 15q-35 0 -54.5 -55t-19.5 -196q0 -158 32 -234t124 -76q14 0 28.5 2t26.5 7l37 -273q-35 -14 -71 -20t-89 -6q-184 0 -289.5 71.5t-148.5 205.5t-43 318z" />
<glyph unicode="&#xe13;" horiz-adv-x="1959" d="M90 713v41q0 113 62.5 203t185.5 143t305 53q266 0 396 -114.5t130 -315.5v-250q0 -82 34 -116.5t79 -34.5q66 0 105.5 62t39.5 165v573h394v-1122h-301l-50 176h-22q-37 -82 -116 -139t-212 -57q-180 0 -258 92t-78 276v350q0 80 -38.5 116t-108.5 36q-59 0 -97 -25.5 t-44 -76.5l143 -68l-25 -158q-74 -2 -103.5 -27.5t-29.5 -91.5v-88q0 -82 80 -82q37 0 68 13l30 -219q-39 -20 -97 -33.5t-128 -13.5q-164 0 -249 77.5t-85 216.5v88q0 113 52.5 172.5t152.5 92.5l2 8z" />
<glyph unicode="&#xe14;" horiz-adv-x="1318" d="M74 543q0 182 44 301t122.5 186.5t186.5 95t235 27.5q199 0 316.5 -54.5t169.5 -151.5t52 -228v-719h-393v690q0 72 -37 112t-113 40q-84 0 -133 -61.5t-49 -229.5q0 -123 34 -192.5t107 -69.5q14 0 33 3t33 5l37 -291q-35 -14 -84 -20t-92 -6q-170 0 -273.5 68.5 t-149.5 195.5t-46 299z" />
<glyph unicode="&#xe15;" horiz-adv-x="1359" d="M84 571q0 295 91 433.5t278 138.5q74 0 131 -30t98 -116h8q35 88 109.5 117t150.5 29q150 0 220.5 -80t70.5 -225v-838h-393v741q0 53 -12.5 71.5t-32.5 18.5q-25 0 -40 -16t-22 -63h-127q-6 49 -21 64t-38 15q-33 0 -51.5 -57t-18.5 -205q0 -147 32 -223t122 -76 q35 0 57 9l37 -273q-35 -14 -72 -20t-86 -6q-190 0 -296.5 71.5t-150.5 204.5t-44 315z" />
<glyph unicode="&#xe16;" horiz-adv-x="1306" d="M90 713v41q0 113 62.5 203t186.5 143t308 53q266 0 403.5 -119t137.5 -344v-690h-393v672q0 78 -36 124t-124 46q-76 0 -105.5 -32t-33.5 -71l143 -63l-25 -154q-74 -2 -103.5 -27.5t-29.5 -91.5v-88q0 -82 80 -82q37 0 68 13l30 -219q-39 -20 -97 -33.5t-128 -13.5 q-164 0 -249 77.5t-85 216.5v76q0 113 52.5 178.5t152.5 98.5l2 8z" />
<glyph unicode="&#xe17;" horiz-adv-x="1359" d="M139 0v1122h291l49 -176h23q35 80 117.5 138.5t226.5 58.5q205 0 300 -110.5t95 -330.5v-702h-393v608q0 109 -36 151t-103 42q-84 0 -130.5 -78t-46.5 -262v-461h-393z" />
<glyph unicode="&#xe18;" horiz-adv-x="1159" d="M74 817q0 129 69.5 203t188.5 103.5t264 29.5q141 0 246.5 -20.5t163.5 -45.5v-284q-43 14 -113 30.5t-152 28.5t-157 12q-45 0 -81 -7t-36 -31q0 -25 38 -36.5t104.5 -22.5t154.5 -38q182 -55 260 -142t78 -241q0 -106 -43 -194t-151.5 -140.5t-305.5 -52.5 q-127 0 -256 22.5t-235 59.5v426h325v-227q35 -8 70 -13.5t69 -5.5q72 0 115 28t43 87q0 55 -38 83t-108.5 43t-164.5 38q-104 23 -183 55.5t-122 92t-43 159.5z" />
<glyph unicode="&#xe19;" horiz-adv-x="1359" d="M119 430v692h393v-608q0 -109 35 -150.5t100 -41.5q88 0 134 76.5t46 263.5v460h394v-1122h-291l-49 176h-23q-35 -80 -116.5 -138t-237.5 -58q-195 0 -290 117.5t-95 332.5z" />
<glyph unicode="&#xe1a;" horiz-adv-x="1331" d="M119 492v630h393v-657q0 -88 36 -136t118 -48t117.5 48t35.5 136v657h393v-630q0 -254 -130.5 -388.5t-415.5 -134.5t-416 134.5t-131 388.5z" />
<glyph unicode="&#xe1b;" horiz-adv-x="1335" d="M119 492v630h393v-657q0 -88 36 -136t118 -48t117.5 48t35.5 136v1061h393v-1034q0 -254 -130.5 -388.5t-415.5 -134.5t-416 134.5t-131 388.5z" />
<glyph unicode="&#xe1c;" horiz-adv-x="1437" d="M131 0v836q0 176 82 241.5t225 65.5q82 0 133.5 -15.5t81.5 -31.5l-53 -244q-14 4 -28.5 6t-22.5 2q-33 0 -45 -18.5t-12 -53.5v-104q0 -41 -4.5 -114.5t-18.5 -186.5h10q43 102 72 157.5t49 94.5l57 108h115l57 -108q23 -45 41.5 -81t37 -76t42.5 -95h11 q-14 113 -18.5 186.5t-4.5 114.5v438h360v-1122h-383l-196 383h-8l-197 -383h-383z" />
<glyph unicode="&#xe1d;" horiz-adv-x="1437" d="M131 0v836q0 176 82 241.5t225 65.5q82 0 133.5 -15.5t81.5 -31.5l-53 -244q-14 4 -28.5 6t-22.5 2q-33 0 -45 -18.5t-12 -53.5v-104q0 -41 -4.5 -114.5t-18.5 -186.5h10q43 102 72 157.5t49 94.5l57 108h115l57 -108q23 -45 41.5 -81t37 -76t42.5 -95h11 q-14 113 -18.5 186.5t-4.5 114.5v842h360v-1526h-383l-196 383h-8l-197 -383h-383z" />
<glyph unicode="&#xe1e;" horiz-adv-x="1531" d="M41 1122h375l41 -331q4 -43 12 -122t14 -180h6q27 98 45.5 177t32.5 131l92 325h215l91 -325q14 -51 32.5 -130t44.5 -178h7q6 100 14 179.5t12 122.5l41 331h375l-191 -1122h-385l-92 352q-27 102 -36 175t-17 130h-8q-8 -57 -20.5 -126.5t-41.5 -178.5l-96 -352h-373z " />
<glyph unicode="&#xe1f;" horiz-adv-x="1519" d="M41 1122h375l41 -331q4 -43 12 -122t14 -180h6q27 98 45.5 177t32.5 131l92 325h215l91 -325q14 -51 32.5 -130t44.5 -178h7q6 100 14 179.5t12 122.5l78 735h375l-228 -1526h-385l-92 352q-27 102 -36 175t-17 130h-8q-8 -57 -20.5 -126.5t-41.5 -178.5l-96 -352h-373z " />
<glyph unicode="&#xe20;" horiz-adv-x="1345" d="M41 31l35 200q23 -8 45 -8q68 0 67 68v121q0 84 37 139t119 76l2 8l-217 78v41q0 113 60.5 203t183.5 143t309 53q270 0 407.5 -119t137.5 -344v-690h-393v672q0 78 -36 124t-124 46q-76 0 -105.5 -32t-33.5 -71l143 -61l-25 -156q-49 -2 -66.5 -32.5t-17.5 -96.5v-151 q0 -139 -86 -200.5t-221 -61.5q-72 0 -128 14t-93 37z" />
<glyph unicode="&#xe21;" horiz-adv-x="1359" d="M139 0v1122h393v-460q0 -186 46.5 -263t134.5 -77q66 0 100.5 42t34.5 150v608h393v-712q0 -201 -92.5 -315.5t-280.5 -114.5q-156 0 -242.5 57t-123.5 139h-23l-49 -176h-291z" />
<glyph unicode="&#xe22;" horiz-adv-x="1304" d="M82 324q0 86 28.5 141t73.5 86t90 43v16q-78 29 -133 83.5t-55 160.5q0 80 38 145.5t123 104.5t224 39q74 0 138.5 -10.5t99.5 -26.5l-58 -254q-12 4 -34.5 8t-43.5 4q-51 0 -74.5 -22.5t-23.5 -57.5q0 -55 45 -72.5t98 -17.5h46v-229h-46q-139 0 -139 -90q0 -37 32 -77 t126 -40q88 0 122 38t34 81v745h393v-737q0 -207 -134 -311.5t-425 -104.5q-197 0 -317 45t-174 125t-54 185z" />
<glyph unicode="&#xe23;" horiz-adv-x="1095" d="M53 88l109 309q41 -27 101.5 -55.5t132 -48t143.5 -19.5q59 0 82.5 14.5t23.5 37.5q0 39 -60.5 60.5t-172.5 64.5q-92 35 -164 76.5t-114 106t-42 169.5q0 131 65.5 207.5t175 109.5t247.5 33q125 0 221 -20.5t149 -45.5v-301q-37 16 -97 33t-127 28t-126 11 q-45 0 -80 -10t-35 -39q0 -39 69 -57.5t169 -53.5q170 -59 242.5 -136t72.5 -214q0 -100 -43 -186t-146.5 -139.5t-289.5 -53.5q-125 0 -261 29t-245 90z" />
<glyph unicode="&#xe24;" horiz-adv-x="1306" d="M90 713v41q0 113 62.5 203t186.5 143t308 53q266 0 403.5 -119t137.5 -344v-1141h-393v1123q0 78 -36 124t-124 46q-76 0 -105.5 -32t-33.5 -71l143 -63l-25 -154q-74 -2 -103.5 -27.5t-29.5 -91.5v-88q0 -82 80 -82q37 0 68 13l30 -219q-39 -20 -97 -33.5t-128 -13.5 q-164 0 -249 77.5t-85 216.5v76q0 113 52.5 178.5t152.5 98.5l2 8z" />
<glyph unicode="&#xe25;" horiz-adv-x="1257" d="M59 299q0 162 114 262.5t355 122.5l226 21v12q0 76 -48.5 108.5t-142.5 32.5q-109 0 -217 -33.5t-176 -74.5v313q59 27 174 58.5t270 31.5q102 0 196.5 -20.5t168.5 -71.5t117 -141.5t43 -229.5v-690h-385v434l-183 -20q-66 -8 -94 -37t-28 -66q0 -39 25.5 -61.5 t66.5 -22.5q20 0 41.5 5.5t38.5 9.5l26 -230q-39 -14 -98.5 -23t-120.5 -9q-178 0 -273.5 83.5t-95.5 235.5z" />
<glyph unicode="&#xe26;" horiz-adv-x="1345" d="M41 31l35 200q23 -8 45 -8q68 0 67 68v121q0 84 37 139t119 76l2 8l-217 78v41q0 113 60.5 203t183.5 143t309 53q270 0 407.5 -119t137.5 -344v-1141h-393v1123q0 78 -36 124t-124 46q-76 0 -105.5 -32t-33.5 -71l143 -61l-25 -156q-49 -2 -66.5 -32.5t-17.5 -96.5v-151 q0 -139 -86 -200.5t-221 -61.5q-72 0 -128 14t-93 37z" />
<glyph unicode="&#xe27;" horiz-adv-x="1077" d="M61 68l99 282q45 -27 114.5 -48t122.5 -21q90 0 147.5 70.5t57.5 215.5q0 133 -56.5 204t-174.5 71q-72 0 -145.5 -22.5t-121.5 -51.5v319q66 27 153 46.5t194 19.5q287 0 420 -152.5t133 -433.5q0 -305 -142.5 -451.5t-392.5 -146.5q-121 0 -225.5 29t-182.5 70z" />
<glyph unicode="&#xe28;" horiz-adv-x="1384" d="M119 0v631q0 254 136 388t433 134q84 0 158 -17.5t129 -58.5q66 51 57 119h301q0 -74 -33.5 -151.5t-125.5 -137.5q39 -51 55 -122.5t16 -157.5v-627h-389v637q0 88 -39 146.5t-135 58.5t-135 -58.5t-39 -146.5v-143l8 -2q35 80 82 105.5t125 25.5h37v-285h-37 q-88 0 -134 -35t-63.5 -91t-17.5 -126v-86h-389z" />
<glyph unicode="&#xe29;" horiz-adv-x="1423" d="M119 492v630h389v-655q0 -92 42 -141.5t144 -49.5q82 0 123 37t45 121h-39q-106 0 -166.5 37t-85 92t-24.5 111q0 43 12 90t35 74l209 -47q-6 -12 -9 -31t-3 -31q0 -29 16 -47t41 -18h16v458h389v-458h107v-230h-109q-14 -227 -147 -346t-418 -119q-301 0 -434 134.5 t-133 388.5z" />
<glyph unicode="&#xe2a;" horiz-adv-x="1269" d="M59 299q0 162 114 262.5t355 122.5l226 21v12q0 76 -48.5 108.5t-142.5 32.5q-109 0 -217 -33.5t-176 -74.5v313q59 27 174 58.5t266 31.5q80 0 150.5 -12.5t124.5 -48.5q49 45 41 104h301q0 -70 -30 -143.5t-112 -132.5q53 -80 54 -230v-690h-385v434l-183 -20 q-66 -8 -94 -37t-28 -66q0 -39 25.5 -61.5t66.5 -22.5q20 0 41.5 5.5t38.5 9.5l26 -230q-39 -14 -98.5 -23t-120.5 -9q-178 0 -273.5 83.5t-95.5 235.5z" />
<glyph unicode="&#xe2b;" horiz-adv-x="1316" d="M139 0v1122h385v-374h11l274 374h424v-14l-281 -326q133 -29 200 -128t67 -224v-430h-394v354q0 72 -28.5 109t-77.5 49l-195 -225v-287h-385z" />
<glyph unicode="&#xe2c;" horiz-adv-x="1505" d="M41 1122h385l43 -409q4 -43 8 -129t2 -185h6q27 76 50.5 144.5t50.5 138.5l69 188h201l68 -188q25 -70 50 -138.5t48 -144.5h6q4 100 11.5 183.5t11.5 126.5l14 127q12 104 -24.5 146t-131.5 42h-151v248h164q141 0 192 53t51 127v10h369v-10q0 -115 -52 -200t-171 -105 v-8q90 -31 118.5 -109t16.5 -160l-125 -870h-416l-71 240q-18 63 -37 134.5t-37 180.5h-8q-20 -109 -41 -180.5t-41 -134.5l-76 -240h-393z" />
<glyph unicode="&#xe2d;" horiz-adv-x="1236" d="M74 457q0 37 3 103.5t9 109.5h539v-228h-168v-22q0 -74 33.5 -121t111.5 -47q82 0 124 63.5t42 212.5q0 152 -56.5 233t-215.5 81q-59 0 -128 -14.5t-128.5 -35t-96.5 -38.5v317q49 25 122 43.5t156 28.5t159 10q211 0 342 -72.5t191.5 -208t60.5 -317.5 q0 -285 -137.5 -435.5t-432.5 -150.5q-272 0 -401 127t-129 361z" />
<glyph unicode="&#xe2e;" horiz-adv-x="1265" d="M74 457q0 37 3 103.5t9 109.5h539v-228h-168v-22q0 -74 33.5 -121t111.5 -47q82 0 124 62.5t42 205.5q0 168 -63.5 245t-202.5 77q-98 0 -199.5 -29t-161.5 -59v317q47 25 122 43.5t156 28.5t150 10q84 0 159 -17.5t132 -58.5q68 49 60 119h301q0 -76 -35 -154.5 t-131 -138.5q119 -121 119 -368q0 -260 -138.5 -413t-435.5 -153q-268 0 -397 127t-129 361z" />
<glyph unicode="&#xe2f;" horiz-adv-x="1138" d="M12 791q0 164 95.5 258t265.5 94q31 0 72.5 -4t86.5 -21l-20 -233q-16 4 -26.5 5t-20.5 1q-37 0 -63.5 -20.5t-26.5 -63.5q0 -45 31.5 -72.5t95.5 -27.5q129 0 129 131v284h393v-1122h-393v485q-86 -70 -232 -69q-100 0 -188 40t-143.5 123t-55.5 212z" />
<glyph unicode="&#xe30;" horiz-adv-x="749" d="M76 285q0 76 47 170l272 -33q-8 -31 -8 -64q0 -29 17.5 -42t60.5 -13h192v-244h-311q-100 0 -159.5 32t-85 83t-25.5 111zM76 858q0 76 47 170l272 -33q-8 -31 -8 -63q0 -29 17.5 -42t60.5 -13h192v-244h-311q-100 0 -159.5 31.5t-85 83t-25.5 110.5z" />
<glyph unicode="&#xe31;" d="M-741 1473q0 76 47 169l272 -32q-4 -16 -6 -30.5t-2 -23.5q0 -29 17.5 -42t60.5 -13h397v-239h-514q-104 0 -163.5 30.5t-84 79.5t-24.5 101z" />
<glyph unicode="&#xe32;" horiz-adv-x="944" d="M70 791v301q45 20 133 40.5t203 20.5q119 0 214 -34t150 -115.5t55 -227.5v-776h-393v702q0 76 -38 110t-113 34q-63 0 -116.5 -17.5t-94.5 -37.5z" />
<glyph unicode="&#xe33;" horiz-adv-x="944" d="M-662 1436q0 102 77 158.5t204 56.5q129 0 206 -56.5t77 -158.5t-77 -158.5t-206 -56.5q-127 0 -204 56t-77 159zM-469 1436q0 -80 88 -80q90 0 90 80t-90 80q-88 0 -88 -80zM70 791v301q45 20 133 40.5t203 20.5q119 0 214 -34t150 -115.5t55 -227.5v-776h-393v702 q0 76 -38 110t-113 34q-63 0 -116.5 -17.5t-94.5 -37.5z" />
<glyph unicode="&#xe34;" d="M-1133 1262v161l246 103h748v-264h-994z" />
<glyph unicode="&#xe35;" d="M-1133 1262v161l246 103h420v125h328v-389h-994z" />
<glyph unicode="&#xe36;" d="M-1133 1262v161l246 103h365q12 63 68.5 106t148.5 43q109 0 168 -59.5t59 -147.5t-55 -147t-174 -59h-826zM-399 1468q0 -35 23.5 -59.5t68.5 -24.5q43 0 64.5 23t21.5 57q0 37 -23.5 60.5t-66.5 23.5q-41 0 -64.5 -22.5t-23.5 -57.5z" />
<glyph unicode="&#xe37;" d="M-1130 1262v161l245 103h193v125h225v-125h102v125h226v-389h-991z" />
<glyph unicode="&#xe38;" d="M-573 -170q29 12 90 25.5t133 13.5q121 0 166 -45t45 -121v-238h-334v160q0 51 -45 51q-10 0 -20.5 -2t-20.5 -6z" />
<glyph unicode="&#xe39;" d="M-928 -156q27 14 84.5 19.5t95.5 5.5q100 0 146.5 -32t46.5 -93v-31q0 -33 11.5 -47t39.5 -14q53 0 53 61v150h312v-199q0 -102 -82.5 -154.5t-270.5 -52.5t-269 47t-81 115v35q0 35 -19.5 42t-51.5 -1z" />
<glyph unicode="&#xe3a;" d="M-500 -283q0 84 47 129t134 45q86 0 133 -45t47 -129t-47 -129t-133 -45t-133.5 45t-47.5 129z" />
<glyph unicode="&#xe3f;" horiz-adv-x="1200" d="M123 74v1315h348v167h162v-170q225 -8 323.5 -91t98.5 -232q0 -113 -68.5 -194t-181.5 -97v-10q119 -20 195.5 -93t76.5 -214q0 -180 -121.5 -280.5t-322.5 -100.5v-195h-162v195h-348zM379 350h92v275h-92v-275zM379 885h92v235h-92v-235zM633 350h2q84 0 117.5 39 t33.5 100q0 51 -32.5 93.5t-120.5 42.5v-275zM633 885q72 4 101.5 40t29.5 85q0 102 -131 110v-235z" />
<glyph unicode="&#xe40;" horiz-adv-x="747" d="M152 274v848h393v-800q0 -68 61 -68q14 0 31.5 3t34.5 9l30 -239q-39 -20 -96 -33.5t-129 -13.5q-174 0 -249.5 77.5t-75.5 216.5z" />
<glyph unicode="&#xe41;" horiz-adv-x="1433" d="M152 274v848h393v-800q0 -68 61 -68q14 0 31.5 3t34.5 9l30 -239q-39 -20 -96 -33.5t-129 -13.5q-174 0 -249.5 77.5t-75.5 216.5zM838 274v848h393v-800q0 -68 61 -68q14 0 31.5 3t34.5 9l30 -239q-39 -20 -96 -33.5t-129 -13.5q-174 0 -249.5 77.5t-75.5 216.5z" />
<glyph unicode="&#xe42;" horiz-adv-x="757" d="M33 1434v153l246 123h509v-276h-301l-2 -9q61 -33 83 -94t22 -162v-847q0 -68 61 -68q14 0 31.5 3t34.5 9l31 -239q-39 -20 -96.5 -33.5t-129.5 -13.5q-174 0 -249.5 77.5t-75.5 216.5v930q0 123 -37 176.5t-127 53.5z" />
<glyph unicode="&#xe43;" horiz-adv-x="747" d="M43 1403v276q27 16 115 42t213 26q178 0 281.5 -72.5t103.5 -216.5q0 -82 -30 -143.5t-64 -106.5q-35 -45 -57.5 -74.5t-34 -61.5t-11.5 -81v-669q0 -68 62 -68q14 0 32.5 3t32.5 9l31 -239q-39 -20 -97 -33.5t-128 -13.5q-174 0 -250 77.5t-76 216.5v730q0 49 6 82.5 t25.5 63.5t54.5 69q33 35 61.5 66.5t28.5 74.5q0 41 -33 65.5t-104 24.5q-92 0 -162 -47z" />
<glyph unicode="&#xe44;" horiz-adv-x="751" d="M12 1434l64 276h706v-276q-76 0 -131 -49.5t-55 -180.5v-882q0 -68 61 -68q14 0 33 3t33 9l31 -239q-39 -20 -97.5 -33.5t-128.5 -13.5q-174 0 -249.5 77.5t-75.5 216.5v895q0 115 31.5 170.5t72.5 85.5l-2 9h-293z" />
<glyph unicode="&#xe45;" horiz-adv-x="944" d="M70 791v301q45 20 133 40.5t203 20.5q119 0 214 -34t150 -115.5t55 -227.5v-1227h-393v1153q0 76 -38 110t-113 34q-63 0 -116.5 -17.5t-94.5 -37.5z" />
<glyph unicode="&#xe46;" horiz-adv-x="1355" d="M94 766q0 209 94.5 298t245.5 89q84 0 146.5 -25.5t93.5 -80.5h8q59 106 248 106q84 0 153.5 -26.5t111.5 -99.5t42 -210v-1268h-393v1264q0 74 -64 74q-63 0 -63 -74v-53h-139v53q0 74 -64 74q-35 0 -51.5 -26.5t-16.5 -90.5q0 -66 19.5 -91.5t60.5 -25.5q25 0 56 11 l63 -232q-29 -27 -83 -47t-130 -20q-150 0 -244 97t-94 304z" />
<glyph unicode="&#xe47;" d="M-1016 1513q0 88 38 144.5t99.5 85.5t130.5 29h547v-170h-477q-33 0 -55.5 -23t-22.5 -68q0 -33 13.5 -55t35.5 -22l80 79h45q4 -35 21.5 -59t50.5 -24q53 0 53 63v33h258v-49q0 -115 -59.5 -170.5t-159.5 -55.5q-68 0 -114 24.5t-74 67.5l-105 -83q-139 0 -222 64.5 t-83 188.5z" />
<glyph unicode="&#xe48;" d="M-512 1262v448h352v-448h-352z" />
<glyph unicode="&#xe49;" d="M-811 1692q41 35 108.5 47t116.5 12q100 0 156.5 -41t56.5 -135q0 -20 -5 -41t-17 -39h276v-235h-672v110q18 6 50 20.5t57 38t25 62.5q0 33 -16.5 47t-39.5 14q-29 0 -57 -14z" />
<glyph unicode="&#xe4a;" d="M-969 1497q0 113 69 182.5t183 71.5l137 -80l117 80q152 -4 210 -58.5t58 -131.5q0 -43 -16 -76h154v-223h-457v161q23 8 38 22.5t15 43.5q0 31 -16.5 46t-32.5 17l-63 -34h-9l-61 34q-16 -2 -31.5 -19t-15.5 -44q0 -25 15.5 -43.5t41.5 -18.5q8 0 15.5 1.5t19.5 3.5 l10 -156q-16 -12 -57 -18.5t-76 -6.5q-117 0 -182.5 66.5t-65.5 179.5z" />
<glyph unicode="&#xe4b;" d="M-639 1403v209h133v139h311v-139h134v-209h-134v-141h-311v141h-133z" />
<glyph unicode="&#xe4c;" d="M-598 1415q0 100 57.5 168t210.5 68h314v-254h-177q-39 0 -59 -12.5t-20 -45.5q0 -29 16 -61l-297 -49q-20 33 -32.5 83t-12.5 103z" />
<glyph unicode="&#xe4d;" d="M-662 1436q0 102 77 158.5t204 56.5q129 0 206 -56.5t77 -158.5t-77 -158.5t-206 -56.5q-127 0 -204 56t-77 159zM-469 1436q0 -80 88 -80q90 0 90 80t-90 80q-88 0 -88 -80z" />
<glyph unicode="&#xe4e;" d="M-618 1343q0 86 56 127t138 41q43 0 76 -12q-4 16 -4 35q0 80 60.5 116t137.5 36q29 0 69 -5.5t71 -19.5v-158q-14 6 -35 9.5t-37 3.5q-33 0 -57.5 -16.5t-24.5 -49.5q0 -10 2 -22.5t12 -24.5l-88 -62q-14 10 -30.5 14.5t-28.5 4.5q-31 0 -44 -16.5t-13 -36.5 q0 -16 10 -37l-236 -39q-14 23 -24 50.5t-10 61.5z" />
<glyph unicode="&#xe4f;" horiz-adv-x="1382" d="M115 467q0 238 135 367t440 129q307 0 442.5 -129t135.5 -367q0 -152 -59.5 -263.5t-186.5 -173t-332 -61.5q-203 0 -330 61.5t-186 173t-59 263.5zM367 467q0 -143 77.5 -223t245.5 -80t247 80t79 223q0 156 -79 228.5t-247 72.5t-245.5 -72.5t-77.5 -228.5zM481 467 q0 100 48.5 152.5t160.5 52.5q113 0 162 -52.5t49 -152.5q0 -90 -49 -148.5t-162 -58.5t-161 58.5t-48 148.5z" />
<glyph unicode="&#xe50;" horiz-adv-x="1153" d="M74 467q0 238 129 367t372 129q246 0 375 -129t129 -367q0 -227 -129 -362.5t-375 -135.5q-244 0 -372.5 135.5t-128.5 362.5zM446 467q0 -106 30.5 -157.5t98.5 -51.5q70 0 101 51t31 158q0 113 -31 160t-101 47q-68 0 -98.5 -47t-30.5 -160z" />
<glyph unicode="&#xe51;" horiz-adv-x="1071" d="M63 602q0 168 98.5 259t327.5 91q274 0 391 -127t117 -348q0 -150 -52 -264.5t-166 -179t-298 -64.5q-47 0 -94 6.5t-94 22.5v238q14 -6 32.5 -8.5t41.5 -2.5q125 0 191.5 61.5t66.5 211.5q0 113 -35 151.5t-96 38.5q-43 0 -68 -15.5t-25 -51.5q0 -59 56 -60q20 0 41 10 l51 -217q-29 -35 -91.5 -54t-123.5 -19q-119 0 -195 78.5t-76 242.5z" />
<glyph unicode="&#xe52;" horiz-adv-x="1357" d="M94 436v760h365v-725q0 -219 241 -219q117 0 172.5 54t55.5 173v209q0 20 -7.5 33.5t-21.5 13.5q-29 0 -35 -59h-57q-4 27 -10 43t-23 16q-18 0 -25.5 -22.5t-7.5 -57.5q0 -86 41 -86q20 0 47 13l52 -170q-23 -16 -58 -27.5t-78 -11.5q-66 0 -122 29.5t-90.5 94 t-34.5 171.5q0 125 49 204.5t164 79.5q53 0 93 -19.5t54 -60.5h6q37 80 172 80q100 0 164 -55t64 -176v-277q0 -145 -53.5 -252.5t-179.5 -165t-339 -57.5q-317 0 -457.5 125t-140.5 342z" />
<glyph unicode="&#xe53;" horiz-adv-x="1163" d="M74 475q0 254 74.5 365.5t228.5 111.5q55 0 107.5 -21.5t97.5 -92.5h6q14 45 53 69.5t86 34.5t90 10q133 0 192.5 -75.5t59.5 -212.5v-664h-369v586q0 41 -9 53t-23 12q-16 0 -24.5 -13t-10.5 -56h-103q-2 45 -12 57t-20 12q-27 0 -39.5 -41t-12.5 -133q0 -121 23 -176 t78 -55q20 0 35 8l43 -246q-35 -12 -90.5 -20t-114.5 -8q-190 0 -268 133t-78 362z" />
<glyph unicode="&#xe54;" horiz-adv-x="1093" d="M74 459q0 135 38 244.5t122.5 174t224.5 64.5h73q123 0 123 109v145h336v-248q0 -125 -72.5 -196.5t-209.5 -71.5h-45q-119 0 -168.5 -62.5t-49.5 -173.5q0 -96 32 -139t93 -43h19q-14 25 -23.5 66t-9.5 82q0 201 256 200q106 0 170 -35l-37 -186q-8 4 -18 4h-17 q-61 0 -61 -59q0 -70 98 -70h51v-264h-481q-229 0 -336.5 114.5t-107.5 344.5z" />
<glyph unicode="&#xe55;" horiz-adv-x="1146" d="M74 459q0 160 54 281.5t175 162.5q-35 23 -56.5 58.5t-21.5 85.5q0 84 63.5 134t174.5 50q115 0 175 -52.5t60 -134.5q0 -41 -12 -70.5t-33 -49.5q80 10 98.5 51t18.5 137v84h283v-248q0 -125 -83 -196.5t-220 -71.5h-66q-135 0 -186.5 -62.5t-51.5 -173.5q0 -96 35 -139 t111 -43h18q-14 25 -23 66t-9 82q0 201 256 200q106 0 170 -35l-37 -186q-8 4 -18.5 4h-16.5q-61 0 -62 -59q0 -70 99 -70h51v-264h-481q-244 0 -354.5 114.5t-110.5 344.5zM401 1026q0 -27 15.5 -47.5t48.5 -20.5q31 0 48 20.5t17 47.5t-17 47.5t-48 20.5 q-33 0 -48.5 -20.5t-15.5 -47.5z" />
<glyph unicode="&#xe56;" horiz-adv-x="1081" d="M53 1196h309l44 -317q66 74 212 73q203 0 296.5 -128t93.5 -347q0 -233 -108.5 -370.5t-358.5 -137.5q-139 0 -249 50.5t-171 168.5l252 174q66 -117 145 -116q117 0 117 221q0 111 -28.5 160t-80.5 49q-39 0 -65.5 -25.5t-24.5 -75.5h-282z" />
<glyph unicode="&#xe57;" horiz-adv-x="1574" d="M74 481q0 250 75.5 360.5t227.5 110.5q55 0 105 -21.5t89 -92.5h7q20 47 58 72.5t81 33.5t78 8q109 0 165 -58t56 -165v-479q37 0 63.5 12t41 53t14.5 125v756h356v-709q0 -152 -46 -247t-119 -147t-159 -72.5t-166 -20.5h-321v586q0 41 -9 53t-24 12q-16 0 -24.5 -13 t-10.5 -56h-82q-2 45 -12 57t-20 12q-27 0 -39.5 -41t-12.5 -133q0 -119 23 -175t76 -56q23 0 37 8l43 -246q-35 -12 -90.5 -20t-106.5 -8q-197 0 -275.5 130t-78.5 371z" />
<glyph unicode="&#xe58;" horiz-adv-x="1157" d="M74 449q0 137 38 248.5t134 178t272 66.5h49q49 0 68.5 22.5t19.5 75.5v156h365v-248q0 -125 -73 -196.5t-210 -71.5h-137q-88 0 -136 -55.5t-48 -151.5q0 -86 31.5 -126t60.5 -46l49 82h70q0 -57 20.5 -82t57.5 -25t56 21.5t19 56.5q0 29 -13 55.5t-24 39.5l207 149 q74 -57 103.5 -132t29.5 -165q0 -162 -79 -247t-222 -85q-88 0 -147.5 35t-81.5 113l-107 -140q-184 -2 -278 114t-94 358z" />
<glyph unicode="&#xe59;" horiz-adv-x="1179" d="M74 487q0 252 77.5 358.5t258.5 106.5q78 0 132 -19.5t89 -66.5q10 37 37.5 61.5t66.5 24.5h10q37 0 49.5 18.5t12.5 49.5v176h319v-242q0 -106 -45 -166.5t-118 -60.5h-29q-59 0 -72.5 -34t8.5 -109l179 -584h-326l-170 635q-8 31 -18.5 42t-24.5 11q-18 0 -32.5 -15.5 t-23 -59.5t-8.5 -132q0 -121 21.5 -178t77.5 -57q23 0 37 8l43 -246q-35 -12 -90.5 -20t-106.5 -8q-197 0 -275.5 130t-78.5 377z" />
<glyph unicode="&#xe5a;" horiz-adv-x="1773" d="M12 791q0 164 95.5 258t265.5 94q31 0 72.5 -4t86.5 -21l-20 -233q-16 4 -26.5 5t-20.5 1q-37 0 -63.5 -20.5t-26.5 -63.5q0 -45 31.5 -72.5t95.5 -27.5q129 0 129 131v284h393v-417q41 -18 84 -19q68 0 113 49t45 131v256h393v-1122h-393v498q-68 -76 -181 -76 q-31 0 -61 6v-428h-393v485q-86 -70 -232 -69q-100 0 -188 40t-143.5 123t-55.5 212z" />
<glyph unicode="&#xe5b;" horiz-adv-x="1906" d="M94 559q0 168 82 263.5t264 95.5q160 0 234 -72t74 -191q0 -43 -9.5 -81.5t-25.5 -84.5l-217 56q10 35 10 61q0 25 -9.5 42.5t-31.5 17.5q-33 0 -42 -35t-9 -68q0 -84 43 -120.5t123 -36.5q137 0 186 94t35 272h233l74 -246l49 224h186l66 -197l45 156h166l10 -41 q16 -63 37 -104.5t92 -41.5q33 0 53 10v-243q-18 -10 -40.5 -17.5t-55.5 -7.5q-70 0 -125 45t-92 142l-29 -183h-151l-62 238l-45 -258h-198l-51 223q-20 -76 -67.5 -151.5t-136.5 -126t-239 -50.5q-219 0 -322.5 112t-103.5 304z" />
<glyph unicode="&#x2000;" horiz-adv-x="1081" />
<glyph unicode="&#x2001;" horiz-adv-x="2163" />
<glyph unicode="&#x2002;" horiz-adv-x="1081" />
<glyph unicode="&#x2003;" horiz-adv-x="2163" />
<glyph unicode="&#x2004;" horiz-adv-x="721" />
<glyph unicode="&#x2005;" horiz-adv-x="540" />
<glyph unicode="&#x2006;" horiz-adv-x="360" />
<glyph unicode="&#x2007;" horiz-adv-x="360" />
<glyph unicode="&#x2008;" horiz-adv-x="270" />
<glyph unicode="&#x2009;" horiz-adv-x="432" />
<glyph unicode="&#x200a;" horiz-adv-x="120" />
<glyph unicode="&#x200b;" />
<glyph unicode="&#x200c;" d="M-43 -272v1558h86v-1558h-86z" />
<glyph unicode="&#x200d;" d="M-223 1024l168 168l-168 166l53 55l170 -170l170 170l53 -55l-168 -166l168 -168l-53 -55l-127 127v-1368h-86v1368l-127 -127z" />
<glyph unicode="&#x2010;" horiz-adv-x="651" d="M43 393v312h565v-312h-565z" />
<glyph unicode="&#x2011;" horiz-adv-x="651" d="M43 393v312h565v-312h-565z" />
<glyph unicode="&#x2012;" horiz-adv-x="651" d="M43 393v312h565v-312h-565z" />
<glyph unicode="&#x2013;" horiz-adv-x="1110" d="M43 393v312h1024v-312h-1024z" />
<glyph unicode="&#x2014;" horiz-adv-x="2134" d="M43 393v312h2048v-312h-2048z" />
<glyph unicode="&#x202f;" horiz-adv-x="432" />
<glyph unicode="&#x205f;" horiz-adv-x="540" />
<glyph unicode="&#x25cc;" horiz-adv-x="1216" d="M98 596q0 23 16.5 38t37.5 15q20 0 36.5 -15.5t16.5 -37.5q0 -23 -16.5 -38t-36.5 -15t-37 15t-17 38zM135 424q0 23 16.5 38t36.5 15t37 -15.5t17 -37.5q0 -23 -17 -38t-37 -15t-36.5 15t-16.5 38zM135 768q0 23 16.5 38t36.5 15t37 -15t17 -38t-17 -38t-37 -15 t-36.5 15t-16.5 38zM231 272q0 23 15.5 38.5t38.5 15.5t38 -15.5t15 -38.5t-15 -38t-38 -15t-38.5 15.5t-15.5 37.5zM231 920q0 23 15.5 38t38.5 15t38 -15.5t15 -37.5q0 -23 -15 -38.5t-38 -15.5t-38.5 15.5t-15.5 38.5zM383 176q0 20 15.5 36.5t37.5 16.5q23 0 38 -16 t15 -37q0 -20 -15 -36.5t-38 -16.5t-38 16.5t-15 36.5zM383 1016q0 20 15.5 36.5t37.5 16.5q23 0 38 -16.5t15 -36.5t-15 -36.5t-38 -16.5t-38 16t-15 37zM555 139q0 20 15.5 37t37.5 17q23 0 38.5 -16.5t15.5 -37.5q0 -20 -15.5 -36.5t-38.5 -16.5t-38 16.5t-15 36.5z M555 1053q0 20 15.5 36.5t37.5 16.5q23 0 38.5 -16.5t15.5 -36.5t-15.5 -37t-38.5 -17t-38 16.5t-15 37.5zM727 176q0 20 15.5 36.5t37.5 16.5q23 0 38.5 -16t15.5 -37q0 -20 -15.5 -36.5t-38.5 -16.5t-38 16.5t-15 36.5zM727 1016q0 20 15.5 36.5t37.5 16.5 q23 0 38.5 -16.5t15.5 -36.5t-15.5 -36.5t-38.5 -16.5t-38 16t-15 37zM879 272q0 23 15 38.5t38 15.5t38 -15.5t15 -38.5t-15 -38t-38 -15t-38 15.5t-15 37.5zM879 920q0 23 15 38t38 15t38 -15.5t15 -37.5q0 -23 -15 -38.5t-38 -15.5t-38 15.5t-15 38.5zM975 424 q0 23 16.5 38t36.5 15t36.5 -15.5t16.5 -37.5q0 -23 -16.5 -38t-36.5 -15t-36.5 15t-16.5 38zM975 768q0 23 16.5 38t36.5 15t36.5 -15t16.5 -38t-16.5 -38t-36.5 -15t-36.5 15t-16.5 38zM1012 596q0 23 16 38t37 15q20 0 36.5 -15.5t16.5 -37.5q0 -23 -16.5 -38t-36.5 -15 t-36.5 15t-16.5 38z" />
<glyph unicode="&#x25fc;" horiz-adv-x="1024" d="M0 0z" />
<glyph horiz-adv-x="1191" d="M174 0v1462h842v-1462h-842zM279 104h632v1254h-632v-1254z" />
<glyph horiz-adv-x="1306" d="M90 713v41q0 113 62.5 203t186.5 143t308 53q266 0 403.5 -119t137.5 -344v-1046h-393v1028q0 78 -36 124t-124 46q-76 0 -105.5 -32t-33.5 -71l143 -63l-25 -154q-74 -2 -103.5 -27.5t-29.5 -91.5v-88q0 -82 80 -82q37 0 68 13l30 -219q-39 -20 -97 -33.5t-128 -13.5 q-164 0 -249 77.5t-85 216.5v76q0 113 52.5 178.5t152.5 98.5l2 8z" />
<glyph horiz-adv-x="1345" d="M41 31l35 200q23 -8 45 -8q68 0 67 68v121q0 84 37 139t119 76l2 8l-217 78v41q0 113 60.5 203t183.5 143t309 53q270 0 407.5 -119t137.5 -344v-1046h-393v1028q0 78 -36 124t-124 46q-76 0 -105.5 -32t-33.5 -71l143 -61l-25 -156q-49 -2 -66.5 -32.5t-17.5 -96.5v-151 q0 -139 -86 -200.5t-221 -61.5q-72 0 -128 14t-93 37z" />
<glyph horiz-adv-x="1345" d="M41 51l35 201q23 -8 45 -8q68 0 67 67v101q0 84 37 139t119 76l2 8l-217 78v41q0 113 60.5 203t183.5 143t309 53q270 0 407.5 -119t137.5 -344v-1100h-350q-41 59 -115 83t-127 24q-59 0 -85 -22.5t-26 -65.5v-19h-358v35q0 172 93 249t253 77q94 0 179 -23.5t143 -66.5 v811q0 78 -36 124t-124 46q-76 0 -105.5 -32t-33.5 -71l143 -61l-25 -156q-49 -2 -66.5 -32.5t-17.5 -96.5v-131q0 -139 -86 -200.5t-221 -61.5q-72 0 -128 14.5t-93 36.5z" />
<glyph horiz-adv-x="1345" d="M41 51l35 201q23 -8 45 -8q68 0 67 67v101q0 84 37 139t119 76l2 8l-217 78v41q0 113 60.5 203t183.5 143t309 53q270 0 407.5 -119t137.5 -344v-1100h-322l-137 101l-92 -101h-88q-16 35 -47 66t-76 31q-47 0 -58.5 -31t-11.5 -59v-7h-297v86q0 111 36 168.5t98.5 78 t138.5 20.5q80 0 143.5 -33t108.5 -107l108 105l103 -70v834q0 78 -36 124t-124 46q-76 0 -105.5 -32t-33.5 -71l143 -61l-25 -156q-49 -2 -66.5 -32.5t-17.5 -96.5v-131q0 -139 -86 -200.5t-221 -61.5q-72 0 -128 14.5t-93 36.5z" />
<glyph horiz-adv-x="1896" d="M90 713v41q0 113 61.5 203t180.5 143t293 53q246 0 384 -109.5t138 -310.5v-311q0 -76 33.5 -108.5t85.5 -32.5q51 0 84.5 32.5t33.5 108.5v700h394v-661q0 -256 -125 -374t-383 -118t-383 118t-125 374v237q0 80 -34 116t-103 36q-117 0 -129 -102l143 -68l-25 -158 q-74 -2 -103.5 -27.5t-29.5 -91.5v-88q0 -82 80 -82q37 0 68 13l30 -219q-39 -20 -97 -33.5t-128 -13.5q-164 0 -249 77.5t-85 216.5v88q0 113 52.5 172.5t152.5 92.5l2 8z" />
<glyph horiz-adv-x="1200" d="M84 748v317q72 33 177.5 60.5t256.5 27.5q94 0 173 -15.5t134 -54.5q59 47 52 113h301q0 -76 -35 -154.5t-131 -138.5q49 -47 80.5 -134t31.5 -220q0 -254 -142 -401.5t-464 -147.5h-321v451h-93v219h441v-377h6q78 0 126 72.5t48 197.5q0 162 -81 222.5t-212 60.5 q-119 0 -204 -32t-144 -66z" />
<glyph horiz-adv-x="1529" d="M41 1122h405l23 -458q2 -70 1 -170.5t-7 -206.5h8q20 72 43 143.5t49 142.5l72 195h223l82 -190q31 -72 48.5 -144t37.5 -147h8q2 70 8.5 133t14.5 129l22 151q10 78 -20.5 112t-100.5 34h-110v231h156q82 0 108.5 29t32.5 90h373q0 -104 -55.5 -175t-178.5 -87v-8 q96 -31 125 -104.5t18 -153.5l-98 -668h-434l-70 236q-16 57 -33.5 110t-33.5 137h-8q-16 -84 -35 -138t-37 -107l-78 -238h-436z" />
<glyph d="M-1569 -172h1323v-236h-1323v236z" />
<glyph d="M-1219 1473q0 76 48 169l272 -32q-4 -16 -6 -30.5t-2 -23.5q0 -29 17.5 -42t60.5 -13h229v-239h-346q-106 0 -164.5 30.5t-83.5 79.5t-25 101z" />
<glyph d="M-467 1751v412h328v-412h-328z" />
<glyph d="M-952 1262v448h352v-448h-352z" />
<glyph d="M-575 2114q39 29 100 39t108 10q92 0 144.5 -35t52.5 -111q0 -18 -3 -35.5t-13 -33.5h231v-197h-600v92q16 6 45 17.5t52.5 32t23.5 53.5q0 27 -15.5 39t-33.5 12q-33 0 -56 -23z" />
<glyph d="M-1169 1692q41 35 108.5 47t116.5 12q100 0 156.5 -41t56.5 -135q0 -18 -5 -40t-20 -40h156v-235h-549v110q18 6 49 20.5t56.5 38t25.5 62.5q0 33 -17.5 47t-37.5 14q-29 0 -57 -14z" />
<glyph d="M-733 1946q0 90 60.5 153.5t193.5 63.5l90 -76l86 76q113 0 177.5 -36t64.5 -118q0 -43 -19 -76h166v-182h-414v135q14 4 29.5 19.5t15.5 40.5q0 20 -12 36.5t-24 18.5l-66 -45h-10l-66 45q-12 0 -24.5 -16.5t-12.5 -42.5q0 -29 17.5 -42.5t40.5 -13.5q14 0 30 6l11 -127 q-14 -10 -49 -17t-68 -7q-119 0 -168 62.5t-49 142.5z" />
<glyph d="M-1325 1495q0 119 60.5 186.5t154.5 69.5l117 -80l102 80q129 -4 179 -55t50 -133q0 -53 -14 -93h76v-208h-336v161q20 8 32.5 22.5t12.5 43.5q0 31 -13.5 46t-29.5 17l-53 -34h-8l-52 34q-14 -2 -26 -19t-12 -44q0 -25 12 -43.5t35 -18.5q8 0 14 1.5t16 3.5l9 -156 q-14 -12 -48 -18.5t-63 -6.5q-102 0 -158.5 65.5t-56.5 178.5z" />
<glyph d="M-610 1855v203h151v105h291v-105h152v-203h-152v-104h-291v104h-151z" />
<glyph d="M-537 1907q0 59 32 112.5t113 86t228 32.5h209v-209h-182q-109 0 -109 -82q0 -14 4 -35.5t15 -37.5l-254 -62q-29 45 -42.5 96.5t-13.5 98.5z" />
<glyph d="M-1120 1415q0 100 67.5 168t221.5 68h231v-254h-115q-39 0 -59.5 -12.5t-20.5 -45.5q0 -29 17 -61l-297 -49q-20 33 -32.5 83t-12.5 103z" />
<glyph d="M-1300 1513q0 131 70.5 195t158.5 64h469v-170h-410q-29 0 -47 -23t-18 -68q0 -33 11 -55t30 -22l69 79h39q2 -35 18.5 -59t43.5 -24q45 0 45 63v33h221v-49q0 -115 -51 -170.5t-137 -55.5q-57 0 -97.5 24.5t-64.5 67.5l-88 -83q-121 0 -191.5 64.5t-70.5 188.5z" />
<glyph d="M-1405 1262v161l184 103h621v-264h-805z" />
<glyph d="M-1405 1262v141l184 102h314v146h307v-389h-805z" />
<glyph d="M-1405 1262v141l184 102h232q4 72 59.5 121t147.5 49q100 0 156.5 -59.5t56.5 -147.5t-52.5 -147t-162.5 -59h-621zM-870 1468q0 -35 21.5 -59.5t64.5 -24.5q39 0 59 23t20 57q0 37 -22.5 60.5t-60.5 23.5q-39 0 -60.5 -22.5t-21.5 -57.5z" />
<glyph d="M-1405 1262v141l184 102h168v146h181v-146h92v146h180v-389h-805z" />
<glyph d="M-662 1436q0 102 77 158.5t204 56.5q129 0 206 -56.5t77 -158.5t-77 -158.5t-206 -56.5q-127 0 -204 56t-77 159zM-518 1751v412h328v-412h-328zM-469 1436q0 -80 88 -80q90 0 90 80t-90 80q-88 0 -88 -80z" />
<glyph d="M-662 1436q0 102 77 158.5t204 56.5q129 0 206 -56.5t77 -158.5t-77 -158.5t-206 -56.5q-127 0 -204 56t-77 159zM-626 2114q39 29 100 39t108 10q92 0 144.5 -35t52.5 -111q0 -18 -3 -35.5t-13 -33.5h231v-197h-600v92q16 6 45 17.5t52.5 32t23.5 53.5q0 27 -15.5 39 t-33.5 12q-33 0 -56 -23zM-469 1436q0 -80 88 -80q90 0 90 80t-90 80q-88 0 -88 -80z" />
<glyph d="M-784 1946q0 90 60.5 153.5t193.5 63.5l90 -76l86 76q113 0 177.5 -36t64.5 -118q0 -43 -19 -76h166v-182h-414v135q14 4 29.5 19.5t15.5 40.5q0 20 -12 36.5t-24 18.5l-66 -45h-10l-66 45q-12 0 -24.5 -16.5t-12.5 -42.5q0 -29 17.5 -42.5t40.5 -13.5q14 0 30 6l11 -127 q-14 -10 -49 -17t-68 -7q-119 0 -168 62.5t-49 142.5zM-662 1436q0 102 77 158.5t204 56.5q129 0 206 -56.5t77 -158.5t-77 -158.5t-206 -56.5q-127 0 -204 56t-77 159zM-469 1436q0 -80 88 -80q90 0 90 80t-90 80q-88 0 -88 -80z" />
<glyph d="M-662 1436q0 102 77 158.5t204 56.5q129 0 206 -56.5t77 -158.5t-77 -158.5t-206 -56.5q-127 0 -204 56t-77 159zM-661 1855v203h151v105h291v-105h152v-203h-152v-104h-291v104h-151zM-469 1436q0 -80 88 -80q90 0 90 80t-90 80q-88 0 -88 -80z" />
<glyph d="M-480 -660q0 84 47 129t134 45q86 0 133 -45t47 -129t-47 -129t-133 -45t-133.5 45t-47.5 129z" />
<glyph d="M-553 -530q29 12 90 25.5t133 13.5q121 0 166 -45t45 -121v-238h-334v160q0 51 -45 51q-10 0 -20.5 -2t-20.5 -6z" />
<glyph d="M-905 -516q27 14 84.5 19.5t95.5 5.5q100 0 146.5 -32t46.5 -93v-31q0 -33 11.5 -47t39.5 -14q53 0 53 61v150h312v-199q0 -102 -82.5 -154.5t-270.5 -52.5t-269 47t-81 115v35q0 35 -19.5 42t-51.5 -1z" />
<glyph d="M-1178 1403v209h134v139h311v-139h133v-209h-133v-141h-311v141h-134z" />
<glyph d="M-1158 1436q0 102 77 158.5t204 56.5q129 0 206 -56.5t77 -158.5t-77 -158.5t-206 -56.5q-127 0 -204 56t-77 159zM-965 1436q0 -80 88 -80q90 0 90 80t-90 80q-88 0 -88 -80z" />
<glyph d="M-990 1436q0 102 77 158.5t204 56.5q129 0 206 -56.5t77 -158.5t-77 -158.5t-206 -56.5q-127 0 -204 56t-77 159zM-846 1751v412h328v-412h-328zM-797 1436q0 -80 88 -80q90 0 90 80t-90 80q-88 0 -88 -80z" />
<glyph d="M-988 1436q0 102 77 158.5t204 56.5q129 0 206 -56.5t77 -158.5t-77 -158.5t-206 -56.5q-127 0 -204 56t-77 159zM-952 2114q39 29 100 39t108 10q92 0 144.5 -35t52.5 -111q0 -18 -3 -35.5t-13 -33.5h231v-197h-600v92q16 6 45 17.5t52.5 32t23.5 53.5q0 27 -15.5 39 t-33.5 12q-33 0 -56 -23zM-795 1436q0 -80 88 -80q90 0 90 80t-90 80q-88 0 -88 -80z" />
<glyph d="M-1112 1946q0 90 60.5 153.5t193.5 63.5l90 -76l86 76q113 0 177.5 -36t64.5 -118q0 -43 -19 -76h166v-182h-414v135q14 4 29.5 19.5t15.5 40.5q0 20 -12 36.5t-24 18.5l-66 -45h-10l-66 45q-12 0 -24.5 -16.5t-12.5 -42.5q0 -29 17.5 -42.5t40.5 -13.5q14 0 30 6 l11 -127q-14 -10 -49 -17t-68 -7q-119 0 -168 62.5t-49 142.5zM-990 1436q0 102 77 158.5t204 56.5q129 0 206 -56.5t77 -158.5t-77 -158.5t-206 -56.5q-127 0 -204 56t-77 159zM-797 1436q0 -80 88 -80q90 0 90 80t-90 80q-88 0 -88 -80z" />
<glyph d="M-988 1436q0 102 77 158.5t204 56.5q129 0 206 -56.5t77 -158.5t-77 -158.5t-206 -56.5q-127 0 -204 56t-77 159zM-987 1855v203h151v105h291v-105h152v-203h-152v-104h-291v104h-151zM-795 1436q0 -80 88 -80q90 0 90 80t-90 80q-88 0 -88 -80z" />
</font>
</defs>
</svg>
